<?xml version="1.0" encoding="utf-8"?>
<!-- Generator: Adobe Illustrator 16.0.0, SVG Export Plug-In . SVG Version: 6.00 Build 0)  -->
<!DOCTYPE svg PUBLIC "-//W3C//DTD SVG 1.1//EN" "http://www.w3.org/Graphics/SVG/1.1/DTD/svg11.dtd">
<svg version="1.1" id="Layer_1" xmlns="http://www.w3.org/2000/svg" xmlns:xlink="http://www.w3.org/1999/xlink" x="0px" y="0px"
	 width="700px" height="700px" viewBox="0 0 700 700" enable-background="new 0 0 700 700" xml:space="preserve">
<rect x="131.5" y="262.5" fill="#F58322" width="22" height="22"/>
<rect x="131.5" y="284.5" fill="#F58322" width="22" height="22"/>
<rect x="131.5" y="306.5" fill="#F58322" width="22" height="22"/>
<rect x="131.5" y="328.5" fill="#F58322" width="22" height="22"/>
<rect x="131.5" y="350.5" fill="#F58322" width="22" height="22"/>
<rect x="153.5" y="240.5" fill="#F58322" width="22" height="22"/>
<rect x="153.5" y="262.5" fill="#F58322" width="22" height="22"/>
<rect x="153.5" y="284.5" fill="#F58322" width="22" height="22"/>
<rect x="153.5" y="306.5" fill="#F58322" width="22" height="22"/>
<rect x="153.5" y="328.5" fill="#F58322" width="22" height="22"/>
<rect x="153.5" y="350.5" fill="#F58322" width="22" height="22"/>
<rect x="153.5" y="394.5" fill="#F58322" width="22" height="22"/>
<rect x="153.5" y="372.5" fill="#F58322" width="22" height="22"/>
<rect x="175.5" y="240.5" fill="#F58322" width="22" height="22"/>
<rect x="175.5" y="262.5" fill="#F58322" width="22" height="22"/>
<rect x="175.5" y="284.5" fill="#F58322" width="22" height="22"/>
<rect x="175.5" y="306.5" fill="#F58322" width="22" height="22"/>
<rect x="175.5" y="328.5" fill="#F58322" width="22" height="22"/>
<rect x="175.5" y="350.5" fill="#F58322" width="22" height="22"/>
<rect x="175.5" y="394.5" fill="#F58322" width="22" height="22"/>
<rect x="175.5" y="416.5" fill="#F58322" width="22" height="22"/>
<rect x="175.5" y="372.5" fill="#F58322" width="22" height="22"/>
<rect x="197.5" y="240.5" fill="#F58322" width="22" height="22"/>
<rect x="197.5" y="262.5" fill="#F58322" width="22" height="22"/>
<rect x="197.5" y="284.5" fill="#F58322" width="22" height="22"/>
<rect x="197.5" y="306.5" fill="#F58322" width="22" height="22"/>
<rect x="197.5" y="328.5" fill="#F58322" width="22" height="22"/>
<rect x="197.5" y="350.5" fill="#F58322" width="22" height="22"/>
<rect x="197.5" y="394.5" fill="#F58322" width="22" height="22"/>
<rect x="197.5" y="416.5" fill="#F58322" width="22" height="22"/>
<rect x="197.5" y="438.5" fill="#F58322" width="22" height="22"/>
<rect x="197.5" y="372.5" fill="#F58322" width="22" height="22"/>
<rect x="219.5" y="240.5" fill="#F58322" width="22" height="22"/>
<rect x="219.5" y="262.5" fill="#F58322" width="22" height="22"/>
<rect x="219.5" y="284.5" fill="#F58322" width="22" height="22"/>
<rect x="219.5" y="306.5" fill="#F58322" width="22" height="22"/>
<rect x="219.5" y="328.5" fill="#F58322" width="22" height="22"/>
<rect x="219.5" y="350.5" fill="#F58322" width="22" height="22"/>
<rect x="219.5" y="394.5" fill="#F58322" width="22" height="22"/>
<rect x="219.5" y="416.5" fill="#F58322" width="22" height="22"/>
<rect x="219.5" y="438.5" fill="#F58322" width="22" height="22"/>
<rect x="219.5" y="372.5" fill="#F58322" width="22" height="22"/>
<rect x="241.5" y="240.5" fill="#F58322" width="22" height="22"/>
<rect x="241.5" y="262.5" fill="#F58322" width="22" height="22"/>
<rect x="241.5" y="284.5" fill="#F58322" width="22" height="22"/>
<rect x="241.5" y="306.5" fill="#F58322" width="22" height="22"/>
<rect x="241.5" y="328.5" fill="#F58322" width="22" height="22"/>
<rect x="241.5" y="350.5" fill="#F58322" width="22" height="22"/>
<rect x="241.5" y="394.5" fill="#F58322" width="22" height="22"/>
<rect x="241.5" y="416.5" fill="#F58322" width="22" height="22"/>
<rect x="241.5" y="438.5" fill="#F58322" width="22" height="22"/>
<rect x="241.5" y="372.5" fill="#F58322" width="22" height="22"/>
<rect x="263.5" y="240.5" fill="#F58322" width="22" height="22"/>
<rect x="263.5" y="262.5" fill="#F58322" width="22" height="22"/>
<rect x="263.5" y="284.5" fill="#F58322" width="22" height="22"/>
<rect x="263.5" y="306.5" fill="#F58322" width="22" height="22"/>
<rect x="263.5" y="328.5" fill="#F58322" width="22" height="22"/>
<rect x="263.5" y="350.5" fill="#F58322" width="22" height="22"/>
<rect x="263.5" y="394.5" fill="#F58322" width="22" height="22"/>
<rect x="263.5" y="416.5" fill="#F58322" width="22" height="22"/>
<rect x="263.5" y="438.5" fill="#F58322" width="22" height="22"/>
<rect x="263.5" y="372.5" fill="#F58322" width="22" height="22"/>
<rect x="285.5" y="240.5" fill="#F58322" width="22" height="22"/>
<rect x="285.5" y="262.5" fill="#F58322" width="22" height="22"/>
<rect x="285.5" y="284.5" fill="#F58322" width="22" height="22"/>
<rect x="285.5" y="306.5" fill="#F58322" width="22" height="22"/>
<rect x="285.5" y="328.5" fill="#F58322" width="22" height="22"/>
<rect x="285.5" y="350.5" fill="#F58322" width="22" height="22"/>
<rect x="285.5" y="394.5" fill="#F58322" width="22" height="22"/>
<rect x="285.5" y="416.5" fill="#F58322" width="22" height="22"/>
<rect x="285.5" y="438.5" fill="#F58322" width="22" height="22"/>
<rect x="285.5" y="372.5" fill="#F58322" width="22" height="22"/>
<rect x="307.5" y="240.5" fill="#F58322" width="22" height="22"/>
<rect x="307.5" y="262.5" fill="#F58322" width="22" height="22"/>
<rect x="307.5" y="284.5" fill="#F58322" width="22" height="22"/>
<rect x="307.5" y="306.5" fill="#F58322" width="22" height="22"/>
<rect x="307.5" y="328.5" fill="#F58322" width="22" height="22"/>
<rect x="307.5" y="350.5" fill="#F58322" width="22" height="22"/>
<rect x="307.5" y="394.5" fill="#F58322" width="22" height="22"/>
<rect x="307.5" y="416.5" fill="#F58322" width="22" height="22"/>
<rect x="307.5" y="438.5" fill="#F58322" width="22" height="22"/>
<rect x="307.5" y="460.5" fill="#F58322" width="22" height="22"/>
<rect x="307.5" y="372.5" fill="#F58322" width="22" height="22"/>
<rect x="329.5" y="240.5" fill="#F58322" width="22" height="22"/>
<rect x="329.5" y="262.5" fill="#F58322" width="22" height="22"/>
<rect x="329.5" y="284.5" fill="#F58322" width="22" height="22"/>
<rect x="329.5" y="306.5" fill="#F58322" width="22" height="22"/>
<rect x="329.5" y="328.5" fill="#F58322" width="22" height="22"/>
<rect x="329.5" y="350.5" fill="#F58322" width="22" height="22"/>
<rect x="329.5" y="394.5" fill="#F58322" width="22" height="22"/>
<rect x="329.5" y="416.5" fill="#F58322" width="22" height="22"/>
<rect x="329.5" y="438.5" fill="#F58322" width="22" height="22"/>
<rect x="329.5" y="460.5" fill="#F58322" width="22" height="22"/>
<rect x="329.5" y="372.5" fill="#F58322" width="22" height="22"/>
<rect x="351.5" y="240.5" fill="#F58322" width="22" height="22"/>
<rect x="351.5" y="262.5" fill="#F58322" width="22" height="22"/>
<rect x="351.5" y="284.5" fill="#F58322" width="22" height="22"/>
<rect x="351.5" y="306.5" fill="#F58322" width="22" height="22"/>
<rect x="351.5" y="328.5" fill="#F58322" width="22" height="22"/>
<rect x="351.5" y="350.5" fill="#F58322" width="22" height="22"/>
<rect x="351.5" y="394.5" fill="#F58322" width="22" height="22"/>
<rect x="351.5" y="416.5" fill="#F58322" width="22" height="22"/>
<rect x="351.5" y="438.5" fill="#F58322" width="22" height="22"/>
<rect x="351.5" y="460.5" fill="#F58322" width="22" height="22"/>
<rect x="351.5" y="372.5" fill="#F58322" width="22" height="22"/>
<rect x="373.5" y="240.5" fill="#F58322" width="22" height="22"/>
<rect x="373.5" y="262.5" fill="#F58322" width="22" height="22"/>
<rect x="373.5" y="284.5" fill="#F58322" width="22" height="22"/>
<rect x="373.5" y="306.5" fill="#F58322" width="22" height="22"/>
<rect x="373.5" y="328.5" fill="#F58322" width="22" height="22"/>
<rect x="373.5" y="350.5" fill="#F58322" width="22" height="22"/>
<rect x="373.5" y="394.5" fill="#F58322" width="22" height="22"/>
<rect x="373.5" y="416.5" fill="#F58322" width="22" height="22"/>
<rect x="373.5" y="438.5" fill="#F58322" width="22" height="22"/>
<rect x="373.5" y="460.5" fill="#F58322" width="22" height="22"/>
<rect x="373.5" y="372.5" fill="#F58322" width="22" height="22"/>
<rect x="395.5" y="240.5" fill="#F58322" width="22" height="22"/>
<rect x="395.5" y="262.5" fill="#F58322" width="22" height="22"/>
<rect x="395.5" y="284.5" fill="#F58322" width="22" height="22"/>
<rect x="395.5" y="306.5" fill="#F58322" width="22" height="22"/>
<rect x="395.5" y="328.5" fill="#F58322" width="22" height="22"/>
<rect x="395.5" y="350.5" fill="#F58322" width="22" height="22"/>
<rect x="395.5" y="394.5" fill="#F58322" width="22" height="22"/>
<rect x="395.5" y="416.5" fill="#F58322" width="22" height="22"/>
<rect x="395.5" y="438.5" fill="#F58322" width="22" height="22"/>
<rect x="395.5" y="372.5" fill="#F58322" width="22" height="22"/>
<rect x="417.5" y="240.5" fill="#F58322" width="22" height="22"/>
<rect x="417.5" y="262.5" fill="#F58322" width="22" height="22"/>
<rect x="417.5" y="284.5" fill="#F58322" width="22" height="22"/>
<rect x="417.5" y="306.5" fill="#F58322" width="22" height="22"/>
<rect x="417.5" y="328.5" fill="#F58322" width="22" height="22"/>
<rect x="417.5" y="350.5" fill="#F58322" width="22" height="22"/>
<rect x="417.5" y="394.5" fill="#F58322" width="22" height="22"/>
<rect x="417.5" y="416.5" fill="#F58322" width="22" height="22"/>
<rect x="417.5" y="438.5" fill="#F58322" width="22" height="22"/>
<rect x="417.5" y="372.5" fill="#F58322" width="22" height="22"/>
<rect x="439.5" y="240.5" fill="#F58322" width="22" height="22"/>
<rect x="439.5" y="262.5" fill="#F58322" width="22" height="22"/>
<rect x="439.5" y="284.5" fill="#F58322" width="22" height="22"/>
<rect x="439.5" y="306.5" fill="#F58322" width="22" height="22"/>
<rect x="439.5" y="328.5" fill="#F58322" width="22" height="22"/>
<rect x="439.5" y="350.5" fill="#F58322" width="22" height="22"/>
<rect x="439.5" y="394.5" fill="#F58322" width="22" height="22"/>
<rect x="439.5" y="416.5" fill="#F58322" width="22" height="22"/>
<rect x="439.5" y="438.5" fill="#F58322" width="22" height="22"/>
<rect x="439.5" y="372.5" fill="#F58322" width="22" height="22"/>
<rect x="461.5" y="240.5" fill="#F58322" width="22" height="22"/>
<rect x="461.5" y="262.5" fill="#F58322" width="22" height="22"/>
<rect x="461.5" y="284.5" fill="#F58322" width="22" height="22"/>
<rect x="461.5" y="306.5" fill="#F58322" width="22" height="22"/>
<rect x="461.5" y="328.5" fill="#F58322" width="22" height="22"/>
<rect x="461.5" y="350.5" fill="#F58322" width="22" height="22"/>
<rect x="461.5" y="394.5" fill="#F58322" width="22" height="22"/>
<rect x="461.5" y="416.5" fill="#F58322" width="22" height="22"/>
<rect x="461.5" y="372.5" fill="#F58322" width="22" height="22"/>
<rect x="483.5" y="240.5" fill="#F58322" width="22" height="22"/>
<rect x="483.5" y="262.5" fill="#F58322" width="22" height="22"/>
<rect x="483.5" y="284.5" fill="#F58322" width="22" height="22"/>
<rect x="483.5" y="306.5" fill="#F58322" width="22" height="22"/>
<rect x="483.5" y="328.5" fill="#F58322" width="22" height="22"/>
<rect x="483.5" y="350.5" fill="#F58322" width="22" height="22"/>
<rect x="483.5" y="394.5" fill="#F58322" width="22" height="22"/>
<rect x="483.5" y="416.5" fill="#F58322" width="22" height="22"/>
<rect x="483.5" y="372.5" fill="#F58322" width="22" height="22"/>
<rect x="505.5" y="240.5" fill="#F58322" width="22" height="22"/>
<rect x="505.5" y="262.5" fill="#F58322" width="22" height="22"/>
<rect x="505.5" y="284.5" fill="#F58322" width="22" height="22"/>
<rect x="505.5" y="306.5" fill="#F58322" width="22" height="22"/>
<rect x="505.5" y="328.5" fill="#F58322" width="22" height="22"/>
<rect x="505.5" y="350.5" fill="#F58322" width="22" height="22"/>
<rect x="505.5" y="394.5" fill="#F58322" width="22" height="22"/>
<rect x="505.5" y="372.5" fill="#F58322" width="22" height="22"/>
<rect x="527.5" y="240.5" fill="#F58322" width="22" height="22"/>
<rect x="527.5" y="262.5" fill="#F58322" width="22" height="22"/>
<rect x="527.5" y="284.5" fill="#F58322" width="22" height="22"/>
<rect x="527.5" y="306.5" fill="#F58322" width="22" height="22"/>
<rect x="527.5" y="328.5" fill="#F58322" width="22" height="22"/>
<rect x="527.5" y="350.5" fill="#F58322" width="22" height="22"/>
<rect x="549.5" y="262.5" fill="#F58322" width="22" height="22"/>
<rect x="549.5" y="284.5" fill="#F58322" width="22" height="22"/>
<rect x="549.5" y="306.5" fill="#F58322" width="22" height="22"/>
<rect x="153.5" y="196.5" fill="#F58322" width="22" height="22"/>
<rect x="153.5" y="218.5" fill="#F58322" width="22" height="22"/>
<rect x="175.5" y="174.5" fill="#F58322" width="22" height="22"/>
<rect x="175.5" y="196.5" fill="#F58322" width="22" height="22"/>
<rect x="175.5" y="218.5" fill="#F58322" width="22" height="22"/>
<rect x="197.5" y="174.5" fill="#F58322" width="22" height="22"/>
<rect x="197.5" y="196.5" fill="#F58322" width="22" height="22"/>
<rect x="197.5" y="218.5" fill="#F58322" width="22" height="22"/>
<rect x="219.5" y="174.5" fill="#F58322" width="22" height="22"/>
<rect x="219.5" y="196.5" fill="#F58322" width="22" height="22"/>
<rect x="219.5" y="218.5" fill="#F58322" width="22" height="22"/>
<rect x="241.5" y="174.5" fill="#F58322" width="22" height="22"/>
<rect x="241.5" y="196.5" fill="#F58322" width="22" height="22"/>
<rect x="241.5" y="218.5" fill="#F58322" width="22" height="22"/>
<rect x="263.5" y="152.5" fill="#F58322" width="22" height="22"/>
<rect x="263.5" y="174.5" fill="#F58322" width="22" height="22"/>
<rect x="263.5" y="196.5" fill="#F58322" width="22" height="22"/>
<rect x="263.5" y="218.5" fill="#F58322" width="22" height="22"/>
<rect x="285.5" y="152.5" fill="#F58322" width="22" height="22"/>
<rect x="285.5" y="174.5" fill="#F58322" width="22" height="22"/>
<rect x="285.5" y="196.5" fill="#F58322" width="22" height="22"/>
<rect x="285.5" y="218.5" fill="#F58322" width="22" height="22"/>
<rect x="307.5" y="152.5" fill="#F58322" width="22" height="22"/>
<rect x="307.5" y="174.5" fill="#F58322" width="22" height="22"/>
<rect x="307.5" y="196.5" fill="#F58322" width="22" height="22"/>
<rect x="307.5" y="218.5" fill="#F58322" width="22" height="22"/>
<rect x="329.5" y="152.5" fill="#F58322" width="22" height="22"/>
<rect x="329.5" y="174.5" fill="#F58322" width="22" height="22"/>
<rect x="329.5" y="196.5" fill="#F58322" width="22" height="22"/>
<rect x="329.5" y="218.5" fill="#F58322" width="22" height="22"/>
<rect x="351.5" y="152.5" fill="#F58322" width="22" height="22"/>
<rect x="351.5" y="174.5" fill="#F58322" width="22" height="22"/>
<rect x="351.5" y="196.5" fill="#F58322" width="22" height="22"/>
<rect x="351.5" y="218.5" fill="#F58322" width="22" height="22"/>
<rect x="373.5" y="152.5" fill="#F58322" width="22" height="22"/>
<rect x="373.5" y="174.5" fill="#F58322" width="22" height="22"/>
<rect x="373.5" y="196.5" fill="#F58322" width="22" height="22"/>
<rect x="373.5" y="218.5" fill="#F58322" width="22" height="22"/>
<rect x="395.5" y="152.5" fill="#F58322" width="22" height="22"/>
<rect x="395.5" y="174.5" fill="#F58322" width="22" height="22"/>
<rect x="395.5" y="196.5" fill="#F58322" width="22" height="22"/>
<rect x="395.5" y="218.5" fill="#F58322" width="22" height="22"/>
<rect x="417.5" y="152.5" fill="#F58322" width="22" height="22"/>
<rect x="417.5" y="174.5" fill="#F58322" width="22" height="22"/>
<rect x="417.5" y="196.5" fill="#F58322" width="22" height="22"/>
<rect x="417.5" y="218.5" fill="#F58322" width="22" height="22"/>
<rect x="439.5" y="174.5" fill="#F58322" width="22" height="22"/>
<rect x="439.5" y="196.5" fill="#F58322" width="22" height="22"/>
<rect x="439.5" y="218.5" fill="#F58322" width="22" height="22"/>
<rect x="461.5" y="174.5" fill="#F58322" width="22" height="22"/>
<rect x="461.5" y="196.5" fill="#F58322" width="22" height="22"/>
<rect x="461.5" y="218.5" fill="#F58322" width="22" height="22"/>
<rect x="483.5" y="196.5" fill="#F58322" width="22" height="22"/>
<rect x="483.5" y="218.5" fill="#F58322" width="22" height="22"/>
<rect x="505.5" y="196.5" fill="#F58322" width="22" height="22"/>
<rect x="505.5" y="218.5" fill="#F58322" width="22" height="22"/>
<rect x="527.5" y="218.5" fill="#F58322" width="22" height="22"/>
<rect x="109.5" y="262.5" fill="#F58322" width="22" height="22"/>
<rect x="109.5" y="284.5" fill="#F58322" width="22" height="22"/>
<rect x="109.5" y="306.5" fill="#F58322" width="22" height="22"/>
<rect x="439.5" y="152.5" fill="#F58322" width="22" height="22"/>
<rect x="241.5" y="152.5" fill="#F58322" width="22" height="22"/>
<rect x="263.5" y="460.5" fill="#F58322" width="22" height="22"/>
<rect x="285.5" y="460.5" fill="#F58322" width="22" height="22"/>
<rect x="395.5" y="460.5" fill="#F58322" width="22" height="22"/>
<rect x="417.5" y="460.5" fill="#F58322" width="22" height="22"/>
<rect x="131.5" y="240.5" fill="#F58322" width="22" height="22"/>
<rect x="131.5" y="218.5" fill="#F58322" width="22" height="22"/>
<rect x="305.5" y="130.5" fill="#F58322" width="22" height="22"/>
<rect x="415.5" y="130.5" fill="#F58322" width="22" height="22"/>
<rect x="327.5" y="130.5" fill="#A95106" width="22" height="22"/>
<rect x="349.5" y="152.5" fill="#A95106" width="22" height="22"/>
<rect x="371.5" y="152.5" fill="#A95106" width="22" height="22"/>
<rect x="393.5" y="130.5" fill="#A95106" width="22" height="22"/>
<rect x="305.5" y="130.5" fill="#A95106" width="22" height="22"/>
<rect x="327.5" y="152.5" fill="#A95106" width="22" height="22"/>
<rect x="283.5" y="130.5" fill="#F58322" width="22" height="22"/>
<rect x="219.5" y="152.5" fill="#F58322" width="22" height="22"/>
<rect x="349.5" y="130.5" fill="#265403" width="22" height="22"/>
<rect x="371.5" y="130.5" fill="#265403" width="22" height="22"/>
<rect x="371.5" y="108.5" fill="#265403" width="22" height="22"/>
<rect x="349.5" y="108.5" fill="#265403" width="22" height="22"/>
<rect x="371.5" y="89.5" fill="#265403" width="22" height="22"/>
<rect x="393.5" y="67.5" fill="#265403" width="22" height="22"/>
<rect x="338.5" y="271.5" fill="#F58322" width="22" height="22"/>
<g>
	<rect x="263.5" y="218.5" fill="#F9F183" width="22" height="22"/>
	<rect x="263.5" y="240.5" fill="#F9F183" width="22" height="22"/>
	<rect x="263.5" y="262.5" fill="#F9F183" width="22" height="22"/>
	<rect x="285.5" y="284.5" fill="#F9F183" width="22" height="22"/>
	<rect x="307.5" y="306.5" fill="#F9F183" width="22" height="22"/>
	<rect x="329.5" y="328.5" fill="#F9F183" width="22" height="22"/>
	<rect x="329.5" y="350.5" fill="#F9F183" width="22" height="22"/>
	<rect x="329.5" y="372.5" fill="#F9F183" width="22" height="22"/>
	<rect x="329.5" y="394.5" fill="#F9F183" width="22" height="22"/>
	<rect x="351.5" y="306.5" fill="#F9F183" width="22" height="22"/>
	<rect x="373.5" y="283.5" fill="#F9F183" width="22" height="22"/>
	<rect x="394.5" y="262.5" fill="#F9F183" width="22" height="22"/>
	<rect x="394.5" y="240.5" fill="#F9F183" width="22" height="22"/>
	<rect x="394.5" y="218.5" fill="#F9F183" width="22" height="22"/>
</g>
<g>
	<rect x="327.5" y="240.5" fill="#E76F24" width="22" height="22"/>
	<g>
		<rect x="283.5" y="131" fill="#E76F24" width="22" height="22"/>
		<rect x="263.5" y="153" fill="#E76F24" width="22" height="22"/>
		<rect x="241.5" y="153" fill="#E76F24" width="22" height="22"/>
		<rect x="219.5" y="153" fill="#E76F24" width="22" height="22"/>
		<rect x="197.5" y="175" fill="#E76F24" width="22" height="22"/>
		<rect x="175.5" y="175" fill="#E76F24" width="22" height="22"/>
		<rect x="153.5" y="197" fill="#E76F24" width="22" height="22"/>
		<rect x="131.5" y="219" fill="#E76F24" width="22" height="22"/>
		<rect x="131.5" y="241" fill="#E76F24" width="22" height="22"/>
		<rect x="109.5" y="263" fill="#E76F24" width="22" height="22"/>
		<rect x="109.5" y="285" fill="#E76F24" width="22" height="22"/>
		<rect x="109.5" y="307" fill="#E76F24" width="22" height="22"/>
		<rect x="131.5" y="329" fill="#E76F24" width="22" height="22"/>
		<rect x="131.5" y="351" fill="#E76F24" width="22" height="22"/>
		<rect x="153.5" y="373" fill="#E76F24" width="22" height="22"/>
		<rect x="153.5" y="395" fill="#E76F24" width="22" height="22"/>
		<rect x="175.5" y="417" fill="#E76F24" width="22" height="22"/>
		<rect x="197.5" y="439" fill="#E76F24" width="22" height="22"/>
		<rect x="219.5" y="439" fill="#E76F24" width="22" height="22"/>
		<rect x="305.5" y="152.5" fill="#E76F24" width="22" height="22"/>
		<rect x="263.5" y="196.5" fill="#E76F24" width="22" height="22"/>
		<rect x="283.5" y="174.5" fill="#E76F24" width="22" height="22"/>
		<rect x="241.5" y="218.5" fill="#E76F24" width="22" height="22"/>
		<rect x="219.5" y="240.5" fill="#E76F24" width="22" height="22"/>
		<rect x="219.5" y="262.5" fill="#E76F24" width="22" height="22"/>
		<rect x="197.5" y="283.5" fill="#E76F24" width="22" height="22"/>
		<rect x="197.5" y="327.5" fill="#E76F24" width="22" height="22"/>
		<rect x="197.5" y="305.5" fill="#E76F24" width="22" height="22"/>
		<rect x="219.5" y="349.5" fill="#E76F24" width="22" height="22"/>
		<rect x="219.5" y="371.5" fill="#E76F24" width="22" height="22"/>
		<rect x="241.5" y="392.5" fill="#E76F24" width="22" height="22"/>
		<rect x="263.5" y="415.5" fill="#E76F24" width="22" height="22"/>
		<rect x="285.5" y="437.5" fill="#E76F24" width="22" height="22"/>
		<rect x="285.5" y="460" fill="#E76F24" width="22" height="22"/>
		<rect x="263.5" y="460" fill="#E76F24" width="22" height="22"/>
		<rect x="241.5" y="439" fill="#E76F24" width="22" height="22"/>
		<rect x="349.5" y="174.5" fill="#E76F24" width="22" height="22"/>
		<rect x="327.5" y="196.5" fill="#E76F24" width="22" height="22"/>
		<rect x="327.5" y="218.5" fill="#E76F24" width="22" height="22"/>
		<rect x="307.5" y="261.5" fill="#E76F24" width="22" height="22"/>
		<rect x="307.5" y="283.5" fill="#E76F24" width="22" height="22"/>
		<rect x="307.5" y="328.5" fill="#E76F24" width="22" height="22"/>
		<rect x="307.5" y="372.5" fill="#E76F24" width="22" height="22"/>
		<rect x="307.5" y="350.5" fill="#E76F24" width="22" height="22"/>
		<rect x="329.5" y="416.5" fill="#E76F24" width="22" height="22"/>
		<rect x="329.5" y="438.5" fill="#E76F24" width="22" height="22"/>
		<rect x="350.5" y="461" fill="#E76F24" width="22" height="22"/>
		<rect x="307.5" y="461" fill="#E76F24" width="22" height="22"/>
		<rect x="329.5" y="461" fill="#E76F24" width="22" height="22"/>
		<rect x="394.5" y="174.5" fill="#E76F24" width="22" height="22"/>
		<rect x="416.5" y="196.5" fill="#E76F24" width="22" height="22"/>
		<rect x="437.5" y="218.5" fill="#E76F24" width="22" height="22"/>
		<rect x="437.5" y="240.5" fill="#E76F24" width="22" height="22"/>
		<rect x="437.5" y="262.5" fill="#E76F24" width="22" height="22"/>
		<rect x="414.5" y="327.5" fill="#E76F24" width="22" height="22"/>
		<rect x="437.5" y="282.5" fill="#E76F24" width="22" height="22"/>
		<rect x="437.5" y="304.5" fill="#E76F24" width="22" height="22"/>
		<rect x="414.5" y="349.5" fill="#E76F24" width="22" height="22"/>
		<rect x="414.5" y="371.5" fill="#E76F24" width="22" height="22"/>
		<rect x="393.5" y="394.5" fill="#E76F24" width="22" height="22"/>
		<rect x="393.5" y="416.5" fill="#E76F24" width="22" height="22"/>
		<rect x="393.5" y="438.5" fill="#E76F24" width="22" height="22"/>
		<rect x="372.5" y="460.5" fill="#E76F24" width="22" height="22"/>
		<rect x="414.5" y="130.5" fill="#E76F24" width="22" height="22"/>
		<rect x="438.5" y="152.5" fill="#E76F24" width="22" height="22"/>
		<rect x="461.5" y="174.5" fill="#E76F24" width="22" height="22"/>
		<rect x="483.5" y="196.5" fill="#E76F24" width="22" height="22"/>
		<rect x="505.5" y="196.5" fill="#E76F24" width="22" height="22"/>
		<rect x="527.5" y="218.5" fill="#E76F24" width="22" height="22"/>
		<rect x="527.5" y="240.5" fill="#E76F24" width="22" height="22"/>
		<rect x="549.5" y="262.5" fill="#E76F24" width="22" height="22"/>
		<rect x="549.5" y="284.5" fill="#E76F24" width="22" height="22"/>
		<rect x="549.5" y="306.5" fill="#E76F24" width="22" height="22"/>
		<rect x="527.5" y="328.5" fill="#E76F24" width="22" height="22"/>
		<rect x="527.5" y="350.5" fill="#E76F24" width="22" height="22"/>
		<rect x="505.5" y="394.5" fill="#E76F24" width="22" height="22"/>
		<rect x="505.5" y="372.5" fill="#E76F24" width="22" height="22"/>
		<rect x="394.5" y="460.5" fill="#E76F24" width="22" height="22"/>
		<rect x="416.5" y="460.5" fill="#E76F24" width="22" height="22"/>
		<rect x="438.5" y="437.5" fill="#E76F24" width="22" height="22"/>
		<rect x="461.5" y="416.5" fill="#E76F24" width="22" height="22"/>
		<rect x="483.5" y="416.5" fill="#E76F24" width="22" height="22"/>
	</g>
</g>
</svg>
